<svg xmlns="http://www.w3.org/2000/svg" height="24px" viewBox="0 -960 960 960" width="24px" fill="#e3e3e3"><path d="M480-129.65q-11.38 0-22.37-3.79t-19.74-11.95q-43.16-39.61-87.85-87.9-44.69-48.29-81.02-100.67-36.33-52.39-59.6-107.23-23.26-54.85-23.26-107.77 0-134.92 87.3-218.79 87.31-83.86 206.54-83.86 119.23 0 206.54 83.86 87.3 83.87 87.3 218.79 0 52.92-23.17 107.58-23.17 54.65-59.5 107.13t-80.83 100.67q-44.5 48.2-87.84 87.81-8.76 8.15-19.94 12.13-11.18 3.99-22.56 3.99Zm.01-205.16q13.11 0 22.74-9.55 9.63-9.54 9.63-22.65t-9.64-22.74q-9.64-9.63-22.75-9.63t-22.64 9.64q-9.54 9.64-9.54 22.75 0 13.1 9.54 22.64 9.55 9.54 22.66 9.54Zm1.13-117.08q8.74 0 14.76-6.49 6.02-6.5 6.02-16.13 0-7.64 4.1-17.23 4.09-9.58 11.67-17.8 5.45-6.01 12.94-12.62 7.49-6.61 15.56-14.19 20.96-20.15 30.35-39.25 9.38-19.09 9.38-42.02 0-40.61-30.83-67.26-30.83-26.66-72.39-26.66-30.74 0-57.41 14.71-26.67 14.71-41.67 41.21-4.43 8.08-1.95 16.52 2.48 8.45 10.37 12.68 7.88 4.42 16.27 2.13 8.38-2.29 12.61-9.86 9.96-16.08 26.38-25.52 16.41-9.45 35.45-9.45 23.83 0 41.67 14.86 17.85 14.87 17.85 37.88 0 17.76-8.19 31.34-8.19 13.58-30.39 33.73-8.47 7.21-15.72 14.63-7.24 7.41-12.62 14.91-7.7 11-11.54 21.46-3.85 10.46-3.85 20.77 0 10.37 5.61 19.01 5.6 8.64 15.57 8.64ZM480-181.88Q595.46-286.65 656.67-382.1q61.21-95.44 61.21-166.86 0-108.08-68.26-177.58-68.27-69.5-169.69-69.5-101.43 0-169.62 69.5t-68.19 177.58q0 71.42 61.21 166.86Q364.54-286.65 480-181.88Zm0-375.81Z"/></svg>